<svg id="Layer_1" data-name="Layer 1" xmlns="http://www.w3.org/2000/svg" xmlns:xlink="http://www.w3.org/1999/xlink" viewBox="0 0 274.15 219.18"><defs><style>.cls-1{fill:none;}.cls-2{fill:#17355e;}.cls-3{fill:#df4841;}.cls-4{fill:#fff;}.cls-5{isolation:isolate;}.cls-6{clip-path:url(#clip-path);}</style><clipPath id="clip-path"><polygon class="cls-1" points="83.59 164.96 81.1 54.9 180.03 46.64 182.52 156.71 83.59 164.96"/></clipPath></defs><title>music-c</title><polygon class="cls-2" points="34.3 209.71 34.41 209.7 34.41 209.69 34.48 209.69 51.96 207.75 121.72 207.51 121.72 197.38 151.19 197.38 151.19 208.28 189.59 210.27 221.82 213.91 221.59 213.96 221.55 216.66 207.25 219.18 34.41 212.55 34.41 209.71 34.3 209.71"/><path class="cls-3" d="M9.92,195.54l257.49,5.2a6.65,6.65,0,0,0,6.78-6.64V6.64A6.65,6.65,0,0,0,266.72.05L9.22,32.43A6.64,6.64,0,0,0,3.41,39V188.9A6.64,6.64,0,0,0,9.92,195.54Z"/><path class="cls-2" d="M6.47,196,264,201.17a6.65,6.65,0,0,0,6.78-6.65V7.07A6.64,6.64,0,0,0,263.27.48L5.77,32.86A6.63,6.63,0,0,0,0,39.45V189.33A6.64,6.64,0,0,0,6.47,196Z"/><path class="cls-3" d="M12.79,182.88a2.6,2.6,0,0,1-2.67-2.43V46.53a2.56,2.56,0,0,1,2.37-2.41L253.65,15.2a2.31,2.31,0,0,1,.37,0,2.59,2.59,0,0,1,2.71,2.44V185.09a2.27,2.27,0,0,1-.74,1.66,2.82,2.82,0,0,1-2,.77Z"/><path class="cls-4" d="M253.23,18.77V184L13.63,179.4V47.51l239.6-28.74m.79-7.1a7.13,7.13,0,0,0-.79.05L12.07,40.65a6,6,0,0,0-5.45,5.88V180.45a6.07,6.07,0,0,0,6.1,5.93L253.88,191H254a6.08,6.08,0,0,0,6.22-5.93V17.61A6.09,6.09,0,0,0,254,11.67Z"/><path class="cls-3" d="M11,193.06l4,0a.55.55,0,0,0,.55-.55v-1.61a.54.54,0,0,0-.55-.54l-4,0a.54.54,0,0,0-.55.54v1.61A.55.55,0,0,0,11,193.06Z"/><rect class="cls-4" x="134.68" y="186.8" width="2" height="13.2" rx="0.39" ry="0.39" transform="translate(-59.95 325.85) rotate(-89.05)"/><g id="_8" data-name="8"><g class="cls-5"><g class="cls-6"><path class="cls-2" d="M131.6,96.36a8.67,8.67,0,0,0-5.8,3.09c-3.31,3.88-3.31,9.87,0,13.37a7.61,7.61,0,0,0,6.22,2.42,8.57,8.57,0,0,0,5.8-3.09c3.31-3.88,3.31-9.87,0-13.38a7.59,7.59,0,0,0-6.21-2.41"/><path class="cls-2" d="M114.42,151.19a40.3,40.3,0,0,1-13.36-9.42,45.4,45.4,0,0,1-9.13-14.36l20.26-11.34a22.49,22.49,0,0,0,4.57,7.33,19.61,19.61,0,0,0,6.77,4.7l-9.11,23.09m17.79-28.42-.4,0A13.6,13.6,0,0,1,121,118.43c-6-6.29-6-17.08,0-24.05a15.49,15.49,0,0,1,10.42-5.56l.38,0a13.63,13.63,0,0,1,10.8,4.37,17,17,0,0,1,4.47,11.77,18.88,18.88,0,0,1-4.47,12.27,15.39,15.39,0,0,1-10.4,5.56m19.3-27.06a22,22,0,0,0-4.66-7.51,19.48,19.48,0,0,0-6.73-4.69l9.11-23.09a40.48,40.48,0,0,1,13.33,9.4,45.7,45.7,0,0,1,9.2,14.54L151.51,95.71M130.57,50.77c-12.76,1.06-24.71,7.43-33.76,18a61.14,61.14,0,0,0-14.49,39.79c0,14.73,5.15,28.28,14.5,38.16a44.18,44.18,0,0,0,35,14.18q.62,0,1.23-.09c12.76-1.06,24.71-7.43,33.77-18A61.21,61.21,0,0,0,181.31,103c0-14.71-5.15-28.27-14.5-38.15a44.19,44.19,0,0,0-35-14.18c-.41,0-.82,0-1.23.09"/></g></g></g></svg>