<svg id="Layer_1" data-name="Layer 1" xmlns="http://www.w3.org/2000/svg" viewBox="0 0 985.89 889.45"><defs><style>.cls-1{fill:#3f3f3f;}.cls-2{fill:#1e1e1e;}.cls-3{fill:#e2dfb4;}.cls-4{fill:#fff;}.cls-5{fill:#e14642;}.cls-6{fill:#d9393e;}.cls-7{fill:#b08874;}.cls-8{fill:#cf9e76;}.cls-9{fill:#fcfcfc;}.cls-10{fill:#4f575e;}.cls-11{fill:#2d2d2d;}.cls-12{fill:#191919;}.cls-13{fill:#173964;}.cls-14{fill:#fdb933;}.cls-15{fill:#75cede;}.cls-16{fill:#020202;}</style></defs><title>music-3_1</title><path class="cls-1" d="M603,498.45H502.89s-1.55,50.92-34.41,72.08c0,0,24,15.63,84.51,13.68,60.55,1.95,84.47-13.68,84.47-13.68C604.61,549.37,603,498.45,603,498.45Z"/><path class="cls-2" d="M136.91,486.27a17.32,17.32,0,0,1-14-16.49V14.23A14.28,14.28,0,0,1,137.1,0H971.66a14.27,14.27,0,0,1,14.23,14.23V469.78a17,17,0,0,1-14.08,16.28s-144.66,21-417.43,21C266.19,507.07,136.91,486.27,136.91,486.27Z"/><circle class="cls-3" cx="554.44" cy="475.92" r="12.13"/><path class="cls-2" d="M554.45,484.48h-.29a7.27,7.27,0,0,1-5.09-2.32,6.78,6.78,0,0,1-1.82-4.92,6.92,6.92,0,0,1,3.23-5.53.15.15,0,0,1,.21,0,.16.16,0,0,1-.05.21,6.61,6.61,0,0,0-3.09,5.3,6.42,6.42,0,0,0,1.74,4.69,6.91,6.91,0,0,0,4.88,2.23,6.81,6.81,0,0,0,7.17-6.39,6.61,6.61,0,0,0-3.24-5.92.15.15,0,0,1-.05-.2.16.16,0,0,1,.21-.06,6.94,6.94,0,0,1,3.38,6.19A7.1,7.1,0,0,1,554.45,484.48Z"/><path class="cls-2" d="M554.45,485.15h-.32a7.94,7.94,0,0,1-5.55-2.54,7.47,7.47,0,0,1-2-5.39,7.63,7.63,0,0,1,3.54-6.08.85.85,0,0,1,.62-.1.81.81,0,0,1,.62,1,.79.79,0,0,1-.36.51,6,6,0,0,0-2.79,4.76,5.86,5.86,0,0,0,1.57,4.22,6.26,6.26,0,0,0,4.41,2,6.14,6.14,0,0,0,6.48-5.75,6,6,0,0,0-2.91-5.32.82.82,0,1,1,.84-1.4,7.6,7.6,0,0,1,3.71,6.79A7.75,7.75,0,0,1,554.45,485.15Z"/><path class="cls-2" d="M554.43,476.34a.14.14,0,0,1-.15-.14v-8.69a.14.14,0,0,1,.15-.15.14.14,0,0,1,.14.15v8.69A.14.14,0,0,1,554.43,476.34Z"/><path class="cls-2" d="M554.43,477a.82.82,0,0,1-.82-.81v-8.69a.82.82,0,0,1,.82-.82.82.82,0,0,1,.81.82v8.69A.81.81,0,0,1,554.43,477Z"/><rect class="cls-4" x="135.19" y="13.32" width="838.38" height="441.5"/><rect class="cls-2" x="349.58" y="556.35" width="406.78" height="28.03" rx="14.01" ry="14.01"/><rect class="cls-5" x="135.19" y="13.32" width="838.38" height="441.5"/><rect class="cls-1" x="135.19" y="12.89" width="838.38" height="42.77"/><rect class="cls-1" x="135.19" y="403.28" width="838.38" height="51.75"/><rect class="cls-6" x="215.74" y="424.28" width="288.95" height="9.54"/><rect class="cls-3" x="512.7" y="424.28" width="443.74" height="9.54"/><rect class="cls-3" x="165.32" y="422.46" width="4.66" height="12.91"/><rect class="cls-3" x="172.19" y="422.46" width="4.66" height="12.91"/><rect class="cls-3" x="504.69" y="417.97" width="8.01" height="22.17"/><path class="cls-3" d="M885.18,34.49a8.27,8.27,0,1,1-8.27-8.27A8.27,8.27,0,0,1,885.18,34.49Z"/><circle class="cls-3" cx="909.93" cy="34.49" r="8.27" transform="translate(-0.55 20.67) rotate(-1.3)"/><path class="cls-3" d="M951.22,34.49a8.28,8.28,0,1,1-8.28-8.27A8.28,8.28,0,0,1,951.22,34.49Z"/><polygon class="cls-3" points="155.79 428.91 144.56 435.39 144.56 422.43 155.79 428.91"/><rect class="cls-3" x="188.79" y="422.56" width="12.69" height="12.69"/><path class="cls-7" d="M218.61,549.69s34.78,40.39,6.51,72.27c0,0,29.74,40.21,29.71,63.71,0,0,4.26-.34,9.54-1.16,9.45-2.56,11.39-4.06,11.39-4.06,9.14-1.3,22.6-9.46,29.18-14.87l-10.88-16.77-45.54-69.09L240.58,504Z"/><path class="cls-8" d="M233.11,617.79c18.21-25-4.14-73-4.14-73l.87-7.91-43.57-6.17a110.78,110.78,0,0,0-2.67,15.91c.85,14.67-9.16,33-9.16,33-4.55,12.17-61.08,79.54-61.08,79.54L203.12,727l18.37-23.57c2.65-3.61,23.09-15.43,23.09-15.43,8.74-2,13.89-2.74,13.89-2.74C257.43,634,233.11,617.79,233.11,617.79Z"/><rect class="cls-9" x="162.25" y="596.71" width="27.5" height="136.99" transform="translate(-460.61 404.05) rotate(-52.88)"/><polygon class="cls-10" points="231.15 721.01 103.64 889.45 0 889.45 0 770.62 108.07 627.85 169.23 674.14 231.15 721.01"/><g id="_1" data-name="1"><path class="cls-4" d="M258.05,185.2c4.53-3.32,7.15-7.28,7.79-11.77,1.22-8.59-4.94-16.59-12.07-25.85-4.85-6.3-10.34-13.44-13.77-21.26a5.69,5.69,0,0,0-10.9,2.28v80.55a24.47,24.47,0,0,0-8.73-1.55,28.32,28.32,0,0,0-8.2,1.24,26.36,26.36,0,0,0-13.65,9.35,17.41,17.41,0,0,0-3.05,15.37c2.3,7.59,9.93,12.49,19.42,12.49h0a28,28,0,0,0,8.21-1.24,26.38,26.38,0,0,0,13.64-9.34,18.33,18.33,0,0,0,3.72-11.08c0-.12,0-.23,0-.35V148.89c1.44,2,2.88,3.82,4.28,5.63,5.09,6.62,10.36,13.46,9.81,17.32-.07.5-.29,2-3.25,4.19a5.69,5.69,0,1,0,6.73,9.17Z"/><path class="cls-4" d="M309.58,206.46c-4.85-6.3-10.35-13.43-13.78-21.26a5.69,5.69,0,0,0-10.9,2.28V268a24.41,24.41,0,0,0-8.72-1.55,28.34,28.34,0,0,0-8.21,1.24,26.33,26.33,0,0,0-13.64,9.35c-3.47,4.74-4.59,10.34-3.06,15.37,2.31,7.59,9.93,12.49,19.43,12.49h0a27.94,27.94,0,0,0,8.2-1.24,26.4,26.4,0,0,0,13.65-9.34,18.39,18.39,0,0,0,3.71-11.08c0-.12,0-.23,0-.35V207.77c1.44,1.95,2.89,3.82,4.28,5.63,5.09,6.62,10.36,13.46,9.81,17.32-.07.5-.28,2-3.25,4.19a5.69,5.69,0,1,0,6.74,9.17c4.53-3.32,7.15-7.28,7.78-11.77C322.86,223.72,316.7,215.72,309.58,206.46Z"/></g><polygon class="cls-10" points="169.23 674.14 6.24 889.45 0 889.45 0 769.82 107.69 627.56 108.07 627.85 169.23 674.14"/><path class="cls-11" d="M278.72,817.48l-24.61-4.59a60.47,60.47,0,0,1-48.38-70.53l97.2-521.76a27.93,27.93,0,0,1,32.57-22.35l88.61,16.51a27.94,27.94,0,0,1,22.35,32.57L349.26,769.1A60.48,60.48,0,0,1,278.72,817.48Z"/><path class="cls-12" d="M424.11,214.76a27.94,27.94,0,0,1,22.35,32.57L349.26,769.1a60.48,60.48,0,0,1-70.54,48.38l-24.61-4.59a60.47,60.47,0,0,1-48.38-70.53l97.2-521.76a27.93,27.93,0,0,1,32.57-22.35l88.61,16.51m.72-3.83-88.62-16.5a31.75,31.75,0,0,0-23.83,5,31.74,31.74,0,0,0-13.28,20.41L201.9,741.65a64.32,64.32,0,0,0,51.49,75.07L278,821.31a64.31,64.31,0,0,0,75.07-51.5l97.2-521.76a31.8,31.8,0,0,0-25.45-37.12Z"/><path class="cls-3" d="M332.25,275.84l-14.48-2.7A8.7,8.7,0,0,1,310.83,263h0A8.71,8.71,0,0,1,321,256.07l14.48,2.7a8.71,8.71,0,0,1,6.95,10.13h0A8.72,8.72,0,0,1,332.25,275.84Z"/><path class="cls-3" d="M373.7,283.56l-14.48-2.7a8.7,8.7,0,0,1-7-10.12h0a8.71,8.71,0,0,1,10.13-6.94l14.48,2.69a8.71,8.71,0,0,1,6.94,10.13h0A8.71,8.71,0,0,1,373.7,283.56Z"/><path class="cls-3" d="M415.14,291.28l-14.48-2.7a8.7,8.7,0,0,1-6.94-10.12h0a8.7,8.7,0,0,1,10.12-6.94l14.48,2.69a8.71,8.71,0,0,1,6.94,10.13h0A8.69,8.69,0,0,1,415.14,291.28Z"/><path class="cls-5" d="M337.5,247.68,323,245a8.7,8.7,0,0,1-6.95-10.12h0a8.72,8.72,0,0,1,10.13-7l14.48,2.7a8.71,8.71,0,0,1,6.94,10.13h0A8.71,8.71,0,0,1,337.5,247.68Z"/><path class="cls-3" d="M327,303.81l-14.48-2.7A8.7,8.7,0,0,1,305.62,291h0A8.7,8.7,0,0,1,315.74,284l14.48,2.7a8.7,8.7,0,0,1,6.95,10.12h0A8.71,8.71,0,0,1,327,303.81Z"/><path class="cls-3" d="M368.49,311.53,354,308.83a8.7,8.7,0,0,1-6.95-10.12h0a8.71,8.71,0,0,1,10.13-6.95l14.48,2.7a8.7,8.7,0,0,1,6.94,10.12h0A8.7,8.7,0,0,1,368.49,311.53Z"/><path class="cls-3" d="M409.93,319.25l-14.48-2.7a8.7,8.7,0,0,1-6.94-10.12h0a8.7,8.7,0,0,1,10.12-6.95l14.48,2.7a8.71,8.71,0,0,1,6.95,10.12h0A8.71,8.71,0,0,1,409.93,319.25Z"/><path class="cls-3" d="M321.79,332l-14.48-2.7a8.7,8.7,0,0,1-6.94-10.12h0a8.7,8.7,0,0,1,10.12-6.95l14.48,2.7A8.7,8.7,0,0,1,331.92,325h0A8.71,8.71,0,0,1,321.79,332Z"/><path class="cls-3" d="M363.24,339.71,348.76,337a8.71,8.71,0,0,1-6.95-10.12h0a8.71,8.71,0,0,1,10.13-6.95l14.48,2.7a8.7,8.7,0,0,1,6.94,10.12h0A8.7,8.7,0,0,1,363.24,339.71Z"/><path class="cls-3" d="M404.68,347.43l-14.48-2.7a8.7,8.7,0,0,1-6.94-10.12h0a8.7,8.7,0,0,1,10.12-6.95l14.48,2.7a8.7,8.7,0,0,1,6.95,10.12h0A8.71,8.71,0,0,1,404.68,347.43Z"/><path class="cls-3" d="M316.64,359.63l-14.48-2.69a8.71,8.71,0,0,1-6.94-10.13h0a8.7,8.7,0,0,1,10.12-6.94l14.48,2.7a8.7,8.7,0,0,1,6.95,10.12h0A8.71,8.71,0,0,1,316.64,359.63Z"/><path class="cls-3" d="M358.09,367.35l-14.48-2.69a8.71,8.71,0,0,1-6.95-10.13h0a8.72,8.72,0,0,1,10.13-6.94l14.48,2.7a8.7,8.7,0,0,1,6.94,10.12h0A8.7,8.7,0,0,1,358.09,367.35Z"/><path class="cls-3" d="M399.53,375.08l-14.48-2.7a8.71,8.71,0,0,1-6.94-10.13h0a8.71,8.71,0,0,1,10.12-6.94l14.48,2.7a8.7,8.7,0,0,1,6.94,10.12h0A8.71,8.71,0,0,1,399.53,375.08Z"/><path class="cls-3" d="M311.49,387.28,297,384.58a8.7,8.7,0,0,1-6.94-10.12h0a8.7,8.7,0,0,1,10.12-6.94l14.48,2.69a8.71,8.71,0,0,1,6.95,10.13h0A8.71,8.71,0,0,1,311.49,387.28Z"/><path class="cls-3" d="M276.58,572l-14.48-2.69a8.71,8.71,0,0,1-6.94-10.13h0a8.7,8.7,0,0,1,10.12-6.94l14.48,2.7a8.7,8.7,0,0,1,6.94,10.12h0A8.7,8.7,0,0,1,276.58,572Z"/><path class="cls-3" d="M358.89,587.37l-14.49-2.7a8.71,8.71,0,0,1-6.94-10.12h0a8.7,8.7,0,0,1,10.12-6.95l14.49,2.7A8.71,8.71,0,0,1,369,580.42h0A8.71,8.71,0,0,1,358.89,587.37Z"/><path class="cls-5" d="M299.83,416.37l-12.06-2.25a7.25,7.25,0,0,1-5.79-8.43h0a7.26,7.26,0,0,1,8.44-5.79l12.06,2.25a7.25,7.25,0,0,1,5.79,8.43h0A7.25,7.25,0,0,1,299.83,416.37Z"/><path class="cls-13" d="M333.83,421.51l-12.27-.12a7.26,7.26,0,0,1-7.16-7.31h0a7.26,7.26,0,0,1,7.31-7.16l12.27.13a7.25,7.25,0,0,1,7.16,7.3h0A7.26,7.26,0,0,1,333.83,421.51Z"/><path class="cls-14" d="M364.64,428.44l-12.07-2.24a7.26,7.26,0,0,1-5.78-8.44h0a7.25,7.25,0,0,1,8.43-5.78l12.07,2.24a7.27,7.27,0,0,1,5.79,8.44h0A7.26,7.26,0,0,1,364.64,428.44Z"/><path class="cls-15" d="M396.8,434.43l-12.06-2.24a7.25,7.25,0,0,1-5.79-8.44h0a7.25,7.25,0,0,1,8.43-5.78l12.07,2.24a7.27,7.27,0,0,1,5.79,8.44h0A7.26,7.26,0,0,1,396.8,434.43Z"/><path class="cls-3" d="M247.33,680.55l-12.07-2.25a7.25,7.25,0,0,1-5.78-8.44h0a7.25,7.25,0,0,1,8.43-5.78L250,666.33a7.26,7.26,0,0,1,5.79,8.43h0A7.26,7.26,0,0,1,247.33,680.55Z"/><path class="cls-3" d="M280,686.63l-12.07-2.25a7.26,7.26,0,0,1-5.79-8.43h0a7.26,7.26,0,0,1,8.44-5.79l12.07,2.25a7.25,7.25,0,0,1,5.78,8.43h0A7.25,7.25,0,0,1,280,686.63Z"/><path class="cls-3" d="M312.14,692.62l-12.07-2.25a7.25,7.25,0,0,1-5.78-8.43h0a7.25,7.25,0,0,1,8.43-5.79l12.07,2.25a7.25,7.25,0,0,1,5.78,8.43h0A7.25,7.25,0,0,1,312.14,692.62Z"/><path class="cls-3" d="M344.3,698.61l-12.07-2.25a7.24,7.24,0,0,1-5.78-8.43h0a7.25,7.25,0,0,1,8.43-5.79L347,684.39a7.25,7.25,0,0,1,5.78,8.44h0A7.25,7.25,0,0,1,344.3,698.61Z"/><path class="cls-3" d="M302.8,652l-10.94-2a7.45,7.45,0,0,1,2.73-14.64l10.93,2A7.44,7.44,0,1,1,302.8,652Zm-8.54-14.92a5.66,5.66,0,0,0-2.07,11.13l10.93,2a5.66,5.66,0,1,0,2.08-11.13Z"/><path class="cls-3" d="M313.19,595.46l-10.93-2A7.45,7.45,0,1,1,305,578.78l10.93,2a7.45,7.45,0,0,1-2.73,14.64Zm-8.53-14.92a5.66,5.66,0,1,0-2.07,11.13l10.93,2a5.66,5.66,0,0,0,2.07-11.13Z"/><path class="cls-3" d="M243,627l6.27-33.65a13.69,13.69,0,0,1,15.92-10.92h0a13.69,13.69,0,0,1,10.92,15.92L269.83,632a13.69,13.69,0,0,1-15.92,10.92h0A13.7,13.7,0,0,1,243,627Z"/><path class="cls-3" d="M329.56,643.1l6.27-33.65a13.69,13.69,0,0,1,15.92-10.92h0a13.69,13.69,0,0,1,10.92,15.92L356.4,648.1A13.68,13.68,0,0,1,340.48,659h0A13.68,13.68,0,0,1,329.56,643.1Z"/><path class="cls-3" d="M352.94,395l-14.48-2.7a8.7,8.7,0,0,1-6.95-10.12h0a8.71,8.71,0,0,1,10.13-6.94l14.48,2.7a8.7,8.7,0,0,1,6.94,10.12h0A8.7,8.7,0,0,1,352.94,395Z"/><path class="cls-3" d="M394.38,402.72,379.9,400A8.71,8.71,0,0,1,373,389.9h0A8.7,8.7,0,0,1,383.08,383l14.48,2.7a8.7,8.7,0,0,1,6.94,10.12h0A8.7,8.7,0,0,1,394.38,402.72Z"/><path class="cls-3" d="M361.91,454.43c-7.62-10-25.8-13.83-25.8-13.83s-18.34-3-29,3.61a5.27,5.27,0,0,0-2.52,4.8v.09a3.74,3.74,0,0,0,.57,1.73l8.59,13.8a7.31,7.31,0,0,0,8.82,3l.27-.11a11.54,11.54,0,0,1,4.7-1,46.22,46.22,0,0,1,7.28,1.36,11.66,11.66,0,0,1,4,2.59l.21.2a7.31,7.31,0,0,0,9.31.37l13-9.78a3.76,3.76,0,0,0,1.15-1.41l0-.08A5.26,5.26,0,0,0,361.91,454.43Z"/><path class="cls-3" d="M291,530.49c7.62,10,25.8,13.83,25.8,13.83s18.34,3,29-3.61a5.28,5.28,0,0,0,2.51-4.8v-.09a3.87,3.87,0,0,0-.58-1.73l-8.58-13.8a7.32,7.32,0,0,0-8.82-3l-.27.11a11.59,11.59,0,0,1-4.71,1,46.22,46.22,0,0,1-7.28-1.36,11.75,11.75,0,0,1-4-2.59l-.21-.2a7.31,7.31,0,0,0-9.31-.37l-13,9.78a3.78,3.78,0,0,0-1.16,1.41l0,.08A5.28,5.28,0,0,0,291,530.49Z"/><path class="cls-3" d="M288.25,457.42c-10,7.62-13.82,25.8-13.82,25.8s-3,18.34,3.61,29a5.25,5.25,0,0,0,4.79,2.51h.09a3.94,3.94,0,0,0,1.73-.57l13.8-8.59a7.32,7.32,0,0,0,3-8.82c0-.09-.07-.18-.11-.27a11.75,11.75,0,0,1-1-4.71,47.39,47.39,0,0,1,1.36-7.28,11.63,11.63,0,0,1,2.6-4l.2-.21a7.3,7.3,0,0,0,.36-9.31l-9.78-13a3.78,3.78,0,0,0-1.41-1.16l-.08,0A5.28,5.28,0,0,0,288.25,457.42Z"/><path class="cls-3" d="M365,528.47c10-7.62,13.83-25.8,13.83-25.8s3-18.34-3.61-29a5.26,5.26,0,0,0-4.79-2.52h-.09a3.66,3.66,0,0,0-1.73.57l-13.8,8.59a7.31,7.31,0,0,0-3,8.82c0,.09.08.18.11.27a11.54,11.54,0,0,1,1,4.7,46.22,46.22,0,0,1-1.36,7.28,11.51,11.51,0,0,1-2.59,4l-.2.21a7.33,7.33,0,0,0-.37,9.32l9.79,13a3.8,3.8,0,0,0,1.4,1.15l.09,0A5.24,5.24,0,0,0,365,528.47Z"/><circle class="cls-5" cx="326.78" cy="492.97" r="14.51"/><circle class="cls-3" cx="304.19" cy="614.15" r="13.21" transform="translate(-366.99 752.77) rotate(-75.32)"/><path class="cls-4" d="M330.85,243.19l-.2,0a5,5,0,0,1-3.14-2.2,4.7,4.7,0,0,1-.61-3.54,4.78,4.78,0,0,1,2.88-3.32.1.1,0,1,1,.07.19,4.55,4.55,0,0,0-2.75,3.18,4.44,4.44,0,0,0,.59,3.38,4.78,4.78,0,0,0,8.64-1.29,4.55,4.55,0,0,0-1.44-4.4.1.1,0,0,1,0-.14.12.12,0,0,1,.15,0,4.75,4.75,0,0,1,1.5,4.59A4.85,4.85,0,0,1,330.85,243.19Z"/><path class="cls-4" d="M330.7,244h0l-.23-.05a5.72,5.72,0,0,1-3.64-2.56,5.47,5.47,0,0,1-.72-4.15,5.57,5.57,0,0,1,3.36-3.89.91.91,0,0,1,1.19.5.94.94,0,0,1,0,.7.92.92,0,0,1-.5.49,3.76,3.76,0,0,0-2.27,2.61,3.71,3.71,0,0,0,.48,2.77,4,4,0,0,0,2.5,1.75,3.86,3.86,0,0,0,4.67-2.79,3.74,3.74,0,0,0-1.19-3.61.91.91,0,0,1,1.21-1.36,5.53,5.53,0,0,1,1.76,5.38A5.65,5.65,0,0,1,330.7,244Z"/><path class="cls-4" d="M331.86,237.71a.1.1,0,0,1-.08-.12l1.09-5.85a.1.1,0,0,1,.12-.08.1.1,0,0,1,.08.12L332,237.63A.1.1,0,0,1,331.86,237.71Z"/><path class="cls-4" d="M331.72,238.51a.91.91,0,0,1-.73-1.07l1.09-5.85a.91.91,0,0,1,1.79.33l-1.09,5.86A.92.92,0,0,1,331.72,238.51Z"/><polygon class="cls-16" points="326.87 454.21 334.05 451.67 339.84 456.62 326.87 454.21"/><polygon class="cls-16" points="289.05 491.5 286.51 484.32 291.46 478.53 289.05 491.5"/><polygon class="cls-16" points="364.07 493.21 366.61 500.39 361.66 506.18 364.07 493.21"/><polygon class="cls-16" points="326.11 530.3 318.93 532.84 313.14 527.89 326.11 530.3"/><path class="cls-8" d="M230.47,531.14h0c7.89-28.1,28-42.5,28-42.5,30-31.34,8.17-58,8.17-58-7.07-12.7-21.58,9.13-21.58,9.13-9.24,16.49-24.81,27.53-24.81,27.53-14.82,12.33-19.89,23.92-19.89,23.92-7.63,15.64-12.31,30.26-14.38,40.57l43.68,6.36Z"/><g id="_7" data-name="7"><path class="cls-4" d="M533.49,243.06a6.11,6.11,0,0,1,6.16,5.57,6,6,0,0,1-6,6.37H508.83a4.08,4.08,0,0,0-4,4.87,55.82,55.82,0,0,0,54.8,45.18h0a55.83,55.83,0,0,0,54.81-45.19,4.09,4.09,0,0,0-4-4.88H584.75a6,6,0,0,1-6-6.36A6.16,6.16,0,0,1,585,243h26.37a4.08,4.08,0,0,0,4.08-4.07v-5.06a4.08,4.08,0,0,0-4.08-4.08H585a6.11,6.11,0,0,1-6.16-5.57,6,6,0,0,1,6-6.37h26.62a4.08,4.08,0,0,0,4.08-4.07v-5.1a4.08,4.08,0,0,0-4.08-4.08H585a6.11,6.11,0,0,1-6.16-5.57,6,6,0,0,1,6-6.37h26.62a4.08,4.08,0,0,0,4.08-4.07v-5.1a4.08,4.08,0,0,0-4.08-4.08H585a6.11,6.11,0,0,1-6.16-5.57,6,6,0,0,1,6-6.36H607.3a4.09,4.09,0,0,0,3.73-5.72,55.82,55.82,0,0,0-51.4-34h0a55.83,55.83,0,0,0-51.45,34.14A4.08,4.08,0,0,0,512,167.5h21.53a6.11,6.11,0,0,1,6.16,5.57,6,6,0,0,1-6,6.36h-25.8a4.08,4.08,0,0,0-4.08,4.08v5.1a4.08,4.08,0,0,0,4.08,4.07h25.6a6.11,6.11,0,0,1,6.16,5.58,6,6,0,0,1-6,6.36h-25.8a4.08,4.08,0,0,0-4.08,4.08v5.1a4.08,4.08,0,0,0,4.08,4.07h25.6a6.11,6.11,0,0,1,6.16,5.58,6,6,0,0,1-6,6.36h-25.8a4.08,4.08,0,0,0-4.08,4.08v9.18h29.68Z"/><path class="cls-4" d="M635.84,226.08a9,9,0,0,0-9,8.95v18.88a62.79,62.79,0,0,1-62.71,62.71h-9.1a62.79,62.79,0,0,1-62.71-62.71V235a9,9,0,0,0-17.91,0v18.88a80.73,80.73,0,0,0,70.53,80v37.38H527a20.52,20.52,0,0,0-20.5,20.49V398a4.18,4.18,0,0,0,4.18,4.18h98a4.18,4.18,0,0,0,4.17-4.18v-6.2a20.51,20.51,0,0,0-20.49-20.49h-18V333.89a80.73,80.73,0,0,0,70.53-80V235A9,9,0,0,0,635.84,226.08Z"/></g><g id="_2" data-name="2"><path class="cls-4" d="M729.77,205.69h18.15a17.24,17.24,0,0,0,33,0h98.86a5,5,0,1,0,0-10.06H780.9a17.24,17.24,0,0,0-33,0H729.77a5,5,0,1,0,0,10.06Z"/><path class="cls-4" d="M879.76,243.05H861.61a17.24,17.24,0,0,0-33,0H729.77a5,5,0,1,0,0,10.06h98.86a17.24,17.24,0,0,0,33,0h18.15a5,5,0,1,0,0-10.06Z"/><path class="cls-4" d="M879.76,290.47H811a17.23,17.23,0,0,0-33,0H729.77a5,5,0,0,0,0,10.07h48.28a17.24,17.24,0,0,0,33,0h68.74a5,5,0,1,0,0-10.07Z"/></g></svg>