<svg id="Layer_1" data-name="Layer 1" xmlns="http://www.w3.org/2000/svg" xmlns:xlink="http://www.w3.org/1999/xlink" viewBox="0 0 274.23 219.18"><defs><style>.cls-1{fill:none;}.cls-2{fill:#17355e;}.cls-3{fill:#74cdde;}.cls-4{fill:#fff;}.cls-5{fill:#df4841;}.cls-6{isolation:isolate;}.cls-7{clip-path:url(#clip-path);}</style><clipPath id="clip-path"><polygon class="cls-1" points="93.85 162.61 94.8 44.8 191.2 51.4 190.26 169.21 93.85 162.61"/></clipPath></defs><title>music-b</title><polygon class="cls-2" points="238.97 209.71 238.86 209.7 238.86 209.69 238.79 209.69 221.47 207.75 152.33 207.51 152.33 197.38 123.13 197.38 123.13 208.28 85.07 210.27 53.12 213.91 53.36 213.96 53.4 216.66 67.57 219.18 238.86 212.55 238.86 209.71 238.97 209.71"/><path class="cls-3" d="M263.13,195.54,8,200.74a6.62,6.62,0,0,1-6.72-6.64V6.64A6.61,6.61,0,0,1,8.64.05L263.82,32.43A6.62,6.62,0,0,1,269.58,39V188.9A6.61,6.61,0,0,1,263.13,195.54Z"/><path class="cls-2" d="M266.55,196l-255.18,5.2a6.62,6.62,0,0,1-6.72-6.65V7.07A6.6,6.6,0,0,1,12.06.48L267.24,32.86A6.61,6.61,0,0,1,273,39.45V189.33A6.62,6.62,0,0,1,266.55,196Z"/><path class="cls-3" d="M21.23,187.54a2.57,2.57,0,0,1-2.68-2.45V17.61a2.57,2.57,0,0,1,2.67-2.45,2.17,2.17,0,0,1,.36,0l239,28.93a2.54,2.54,0,0,1,2.33,2.42V180.45a2.59,2.59,0,0,1-2.63,2.45Z"/><path class="cls-4" d="M22,18.74,259.42,47.48v132L22,184V18.74m-.81-7.07a6.06,6.06,0,0,0-6.16,5.94V185.09A6.06,6.06,0,0,0,21.23,191h.13l239-4.64a6,6,0,0,0,6-5.93V46.53A6,6,0,0,0,261,40.65L22,11.72a6.81,6.81,0,0,0-.78-.05Z"/><path class="cls-5" d="M262.05,193.06l-4,0a.55.55,0,0,1-.55-.55v-1.61a.54.54,0,0,1,.54-.54l4,0a.53.53,0,0,1,.54.54v1.61A.55.55,0,0,1,262.05,193.06Z"/><rect class="cls-4" x="131.96" y="192.4" width="13.08" height="2" rx="0.39" ry="0.39" transform="translate(-3.16 2.31) rotate(-0.94)"/><g id="_6" data-name="6"><g class="cls-6"><g class="cls-7"><path class="cls-2" d="M143,48.1c-12.9-.89-24.91,4.23-33.92,14.47s-14.32,24.9-14.72,41a72,72,0,0,0,2.93,22.17,20.11,20.11,0,0,0-.57,11.87l3,11.9a18.28,18.28,0,0,0,7,10.68,13.33,13.33,0,0,0,6.42,2.42l.33,0a12.2,12.2,0,0,0,4.31-.51l.31-.09-11.75-45.51,0,0a57.13,57.13,0,0,1-1-12c.64-26.31,16.73-44.8,37.58-43.37l.77.06c21.22,1.95,36.74,23.51,36.09,50.14a53.56,53.56,0,0,1-1.56,11.74h0l-13.89,43.15.29.15a13,13,0,0,0,4.6,1.32l.29,0a12.14,12.14,0,0,0,6.22-1.26,15.22,15.22,0,0,0,7.54-9.34l3.53-11.31a20.36,20.36,0,0,0,0-11.95,67.51,67.51,0,0,0,4-21.51c.39-16.11-4.1-31.57-12.66-43.52-8.7-12.14-20.79-19.51-34.08-20.72l-1-.08"/><path class="cls-2" d="M142.91,64.51c-10.32-.7-19.5,4.17-25.77,12.62a2,2,0,0,0,.41,2.63l1.12.79A7.84,7.84,0,0,0,122.46,82h.17a7.33,7.33,0,0,0,5.17-1.71,21,21,0,0,1,15-5.06l.47,0a24,24,0,0,1,15.17,7.8,8.37,8.37,0,0,0,5.22,2.65l.18,0A7,7,0,0,0,167.5,85l1.2-.59a1.83,1.83,0,0,0,.54-2.56c-5.94-9.72-15.09-16.31-25.67-17.28l-.66-.06"/><path class="cls-2" d="M170.2,118.24a5.17,5.17,0,0,0-3.92,1.4,7,7,0,0,0-1.9,3.11l-10.06,32.16a9,9,0,0,0,.73,6.91,6.37,6.37,0,0,0,4.46,3.27l.37.07.17,0a1.92,1.92,0,0,0,1.89-1.45c2.25-7,10.81-33.53,13.09-40.62a2.78,2.78,0,0,0-.76-2.88l-.52-.44a6.21,6.21,0,0,0-3.45-1.54h-.1"/><path class="cls-2" d="M114.28,113.11a5.54,5.54,0,0,0-3.4.9l-.54.36a2.52,2.52,0,0,0-.89,2.72c1.93,7.47,9.16,35.5,11.06,42.84a2.24,2.24,0,0,0,1.89,1.78h.46a5.41,5.41,0,0,0,4.61-2.43,8.55,8.55,0,0,0,1.06-6.75l-8.46-33.86a8.31,8.31,0,0,0-1.74-3.44,6,6,0,0,0-3.93-2.12h-.12"/></g></g></g></svg>