<svg id="Layer_1" data-name="Layer 1" xmlns="http://www.w3.org/2000/svg" viewBox="0 0 371.93 218.74"><defs><style>.cls-1{fill:#173964;}.cls-2{fill:#fff;}.cls-3{fill:#fdb933;}</style></defs><title>music-a</title><path class="cls-1" d="M287.12,210.22H211.79V88.1H164.55V210.22H84.8a2.23,2.23,0,0,0-2.22,2.23v4.06a2.23,2.23,0,0,0,2.22,2.23H287.12a2.23,2.23,0,0,0,2.23-2.23v-4.06A2.23,2.23,0,0,0,287.12,210.22Z"/><rect class="cls-1" width="371.93" height="199.81" rx="10.87" ry="10.87"/><rect class="cls-2" x="8.35" y="7.35" width="355.23" height="182.71" rx="10.87" ry="10.87"/><rect class="cls-3" x="19.06" y="17.77" width="335" height="161.86" rx="12.46" ry="12.46"/><rect class="cls-2" x="175.34" y="193.24" width="22.44" height="4.23" rx="0.75" ry="0.75"/><g id="_7" data-name="7"><path class="cls-2" d="M175.77,116.48a2.52,2.52,0,0,1,2.54,2.3,2.46,2.46,0,0,1-2.46,2.63H165.59a1.69,1.69,0,0,0-1.66,2,23.06,23.06,0,0,0,22.63,18.65h0a23.05,23.05,0,0,0,22.63-18.66,1.69,1.69,0,0,0-1.65-2H196.93a2.46,2.46,0,0,1-2.46-2.63,2.54,2.54,0,0,1,2.56-2.31h10.89a1.69,1.69,0,0,0,1.68-1.69V112.7a1.69,1.69,0,0,0-1.68-1.69H197a2.52,2.52,0,0,1-2.54-2.3,2.47,2.47,0,0,1,2.46-2.63h11a1.68,1.68,0,0,0,1.68-1.68v-2.1a1.69,1.69,0,0,0-1.68-1.69H197a2.52,2.52,0,0,1-2.54-2.3,2.47,2.47,0,0,1,2.46-2.62h11A1.69,1.69,0,0,0,209.6,94V91.9a1.68,1.68,0,0,0-1.68-1.68H197a2.52,2.52,0,0,1-2.54-2.3,2.47,2.47,0,0,1,2.46-2.63h9.31a1.69,1.69,0,0,0,1.54-2.36,23,23,0,0,0-21.22-14.06h0A23.06,23.06,0,0,0,165.32,83a1.68,1.68,0,0,0,1.56,2.32h8.89a2.52,2.52,0,0,1,2.54,2.3,2.47,2.47,0,0,1-2.46,2.63H165.2a1.68,1.68,0,0,0-1.68,1.68V94a1.69,1.69,0,0,0,1.68,1.69h10.57a2.52,2.52,0,0,1,2.54,2.3,2.46,2.46,0,0,1-2.46,2.62H165.2a1.69,1.69,0,0,0-1.68,1.69v2.1a1.68,1.68,0,0,0,1.68,1.68h10.57a2.52,2.52,0,0,1,2.54,2.31,2.46,2.46,0,0,1-2.46,2.62H165.2a1.69,1.69,0,0,0-1.68,1.69v3.79h12.25Z"/><path class="cls-2" d="M218,109.47a3.7,3.7,0,0,0-3.69,3.7V121a25.92,25.92,0,0,1-25.89,25.89h-3.76A25.91,25.91,0,0,1,158.79,121v-7.79a3.7,3.7,0,1,0-7.39,0V121a33.32,33.32,0,0,0,29.12,33v15.43h-7.44a8.48,8.48,0,0,0-8.47,8.47v2.55a1.73,1.73,0,0,0,1.73,1.73h40.44a1.72,1.72,0,0,0,1.72-1.73v-2.55a8.47,8.47,0,0,0-8.46-8.47H192.6V154a33.32,33.32,0,0,0,29.12-33v-7.79A3.7,3.7,0,0,0,218,109.47Z"/></g></svg>