<svg id="Layer_1" data-name="Layer 1" xmlns="http://www.w3.org/2000/svg" viewBox="0 0 272.73 272.73"><defs><style>.cls-1{fill:#173964;}.cls-2{fill:#75cede;}</style></defs><title>music-3</title><path class="cls-1" d="M0,136.37A136.37,136.37,0,1,1,136.37,272.73,136.36,136.36,0,0,1,0,136.37Z"/><g id="_9" data-name="9"><path class="cls-2" d="M187.2,167.33a50.09,50.09,0,0,0-.06-64.8,5.89,5.89,0,0,0-9,7.63,38.34,38.34,0,0,1,.05,49.56,5.89,5.89,0,1,0,9,7.61Z"/><path class="cls-2" d="M196.67,80a5.89,5.89,0,1,0-7.73,8.89,61,61,0,0,1-.37,92.52,5.89,5.89,0,0,0,7.66,9A72.82,72.82,0,0,0,196.67,80Z"/><path class="cls-2" d="M89,100.55H63a12,12,0,0,0-12,12v44.83a12,12,0,0,0,12,12H89a2.52,2.52,0,0,0,2.52-2.52V103.07A2.52,2.52,0,0,0,89,100.55Z"/><path class="cls-2" d="M156.64,65.3l-56,31.87a2.53,2.53,0,0,0-1.28,2.19v71.21a2.53,2.53,0,0,0,1.28,2.19l56,31.87a2.75,2.75,0,0,0,4.11-2.46V67.76a2.83,2.83,0,0,0-.67-1.88A2.77,2.77,0,0,0,156.64,65.3Z"/></g></svg>