<svg id="Layer_1" data-name="Layer 1" xmlns="http://www.w3.org/2000/svg" viewBox="0 0 272.73 272.73"><defs><style>.cls-1{fill:#173964;}.cls-2{fill:#75cede;}</style></defs><title>music-1</title><path class="cls-1" d="M0,136.37A136.37,136.37,0,1,1,136.37,272.73,136.36,136.36,0,0,1,0,136.37Z"/><g id="_6" data-name="6"><path class="cls-2" d="M226.53,138.43c0-25.25-9.09-48.78-25.61-66.25a87.88,87.88,0,0,0-64.55-27.51A87.91,87.91,0,0,0,71.81,72.18c-16.51,17.47-25.61,41-25.61,66.25a93.31,93.31,0,0,0,6.46,34.25,27,27,0,0,0-.51,18.65l6.08,18.18a27.1,27.1,0,0,0,34.38,17.14l.56-.19L69.19,157l-.08,0a73.4,73.4,0,0,1-2.39-18.58c0-41.76,29.94-73.24,69.65-73.24S206,96.67,206,138.43A73.31,73.31,0,0,1,203.63,157l0,0-24,69.48.56.19a27.16,27.16,0,0,0,34.38-17.14l6.09-18.18a27,27,0,0,0-.55-18.7A93.35,93.35,0,0,0,226.53,138.43Z"/><path class="cls-2" d="M197.74,157.39A3.75,3.75,0,0,0,196.2,153l-1-.63a12.19,12.19,0,0,0-6.52-1.89,11.27,11.27,0,0,0-7.44,2.74,11.86,11.86,0,0,0-3.42,5.13l-17.31,51.73a11.83,11.83,0,0,0,1.68,10.72,11.26,11.26,0,0,0,8.48,4.47l.68,0a3.77,3.77,0,0,0,3.79-2.52C179,211.58,193.8,168.8,197.74,157.39Z"/><path class="cls-2" d="M95,158.35a11.86,11.86,0,0,0-3.42-5.13,11.25,11.25,0,0,0-7.44-2.74,12.21,12.21,0,0,0-6.52,1.89l-1,.63A3.75,3.75,0,0,0,75,157.39C79,168.8,93.76,211.58,97.63,222.8a3.77,3.77,0,0,0,3.79,2.52l.69,0a11.29,11.29,0,0,0,8.48-4.47,11.83,11.83,0,0,0,1.67-10.72Z"/></g></svg>