<svg id="Layer_1" data-name="Layer 1" xmlns="http://www.w3.org/2000/svg" viewBox="0 0 272.73 272.73"><defs><style>.cls-1{fill:#fdb933;}.cls-2{fill:#173964;}</style></defs><title>music-2</title><path class="cls-1" d="M0,136.37A136.37,136.37,0,1,1,136.37,272.73,136.36,136.36,0,0,1,0,136.37Z"/><path class="cls-2" d="M220.94,67.54H54.62a6.82,6.82,0,0,0-6.81,6.81V175.83a6.81,6.81,0,0,0,6.81,6.81h74.94v10.77H90A6.81,6.81,0,0,0,90,207h98.24a6.81,6.81,0,0,0,0-13.61H143.17V182.64h77.77a6.81,6.81,0,0,0,6.8-6.81V74.35A6.82,6.82,0,0,0,220.94,67.54ZM214.57,169l-153.15-.33V81.38L214.14,81Z"/><g id="_9" data-name="9"><path class="cls-2" d="M165.79,139.69a22.72,22.72,0,0,0,0-29.41,2.67,2.67,0,0,0-4.08,3.46,17.39,17.39,0,0,1,0,22.5,2.67,2.67,0,0,0,2,4.4A2.64,2.64,0,0,0,165.79,139.69Z"/><path class="cls-2" d="M170.09,100a2.67,2.67,0,1,0-3.5,4,27.7,27.7,0,0,1-.17,42,2.67,2.67,0,1,0,3.47,4.07,33.05,33.05,0,0,0,.2-50.1Z"/><path class="cls-2" d="M121.22,109.38H109.4a5.44,5.44,0,0,0-5.44,5.45v20.35a5.45,5.45,0,0,0,5.44,5.44h11.82a1.15,1.15,0,0,0,1.15-1.14v-29A1.15,1.15,0,0,0,121.22,109.38Z"/><path class="cls-2" d="M151.92,93.38l-25.41,14.47a1.13,1.13,0,0,0-.58,1v32.32a1.16,1.16,0,0,0,.58,1l25.41,14.46a1.24,1.24,0,0,0,1.87-1.11v-61a1.25,1.25,0,0,0-1.87-1.11Z"/></g></svg>