<svg xmlns="http://www.w3.org/2000/svg" viewBox="0 0 90.84 157.12"><defs><style>.cls-1{fill:#fff;}</style></defs><title>music</title><g id="Layer_2" data-name="Layer 2"><g id="Layer_1-2" data-name="Layer 1"><path class="cls-1" d="M80.71,79.48c5.78-4.24,9.12-9.3,9.93-15,1.56-11-6.3-21.17-15.39-33-6.19-8-13.2-17.15-17.57-27.13A7.26,7.26,0,0,0,43.77,7.26V110a31.12,31.12,0,0,0-11.13-2,35.93,35.93,0,0,0-10.47,1.58A33.6,33.6,0,0,0,4.76,121.57C.33,127.62-1.1,134.76.86,141.18c2.94,9.69,12.67,15.94,24.78,15.94h0a36,36,0,0,0,10.47-1.58,33.58,33.58,0,0,0,17.41-11.93,23.31,23.31,0,0,0,4.74-14.13c0-.15,0-.29,0-.44V33.15C60.13,35.64,62,38,63.74,40.34,70.24,48.78,77,57.51,76.27,62.43c-.09.63-.37,2.57-4.15,5.35a7.26,7.26,0,1,0,8.59,11.7Z"/></g></g></svg>